Coordinates
version=1
nRows=9
nColumns=24
inDegrees=yes

Units are S.I. units (second, meters, Newtons, ...)
Angles are in degrees.

endheader
time	pelvis_tilt	pelvis_list	pelvis_rotation	pelvis_tx	pelvis_ty	pelvis_tz	hip_flexion_r	hip_adduction_r	hip_rotation_r	knee_angle_r	ankle_angle_r	subtalar_angle_r	mtp_angle_r	hip_flexion_l	hip_adduction_l	hip_rotation_l	knee_angle_l	ankle_angle_l	subtalar_angle_l	mtp_angle_l	lumbar_extension	lumbar_bending	lumbar_rotation
      1.20450000	     -5.28946548	     -5.15424204	     -7.76621067	      0.08031495	      0.95487848	      0.35619581	    -15.23680393	      7.24241136	      1.02828737	     -7.94625265	     11.14189176	      2.04426632	      5.44162745	     31.59460242	     -6.47514838	     -9.97232324	      0.93799915	      4.59977344	      1.12867823	      0.99625157	      1.28957320	      9.20140723	     13.00447562
      1.20866667	     -5.36751899	     -4.99431108	     -7.82533111	      0.08653103	      0.95412294	      0.35597669	    -15.36270320	      6.99986528	      0.98951046	     -8.19868770	     10.94699522	      2.03718422	      5.75551164	     31.65873828	     -6.32839464	     -9.70141383	      0.55639402	      4.27847915	      0.49102060	      1.07958387	      1.44425496	      9.00896520	     13.07292997
      1.21283333	     -5.45577570	     -4.82180897	     -7.87886242	      0.09279219	      0.95340297	      0.35574923	    -15.46946193	      6.74733671	      0.95325423	     -8.45999644	     10.71418800	      1.99550219	      6.04725412	     31.73721704	     -6.16841078	     -9.43871787	      0.13442779	      3.90258164	     -0.13866545	      1.16296840	      1.62237499	      8.79644906	     13.13679604
      1.21700000	     -5.53341611	     -4.63200644	     -7.93261269	      0.09907770	      0.95273675	      0.35549522	    -15.55760896	      6.47130949	      0.89216141	     -8.77518122	     10.49493843	      1.95682618	      6.47597003	     31.79997501	     -5.98583583	     -9.13677503	     -0.30967307	      3.51823114	     -0.89118362	      1.29509916	      1.78135577	      8.57076303	     13.18756008
      1.22116667	     -5.64455986	     -4.44120393	     -7.96520397	      0.10540951	      0.95206652	      0.35522156	    -15.61999471	      6.20723182	      0.84839802	     -9.05982783	     10.18904038	      1.90854652	      6.80074125	     31.91200280	     -5.79571136	     -8.84006267	     -0.79330315	      3.01332929	     -1.58507373	      1.39615749	      2.00543620	      8.34279285	     13.25891511
      1.22533333	     -5.67757346	     -4.18544620	     -7.98003175	      0.11183601	      0.95152749	      0.35487226	    -15.72820698	      5.84719831	      0.63033529	     -9.38423067	      9.77052446	      2.08412301	     10.93848025	     31.92903776	     -5.51933333	     -8.56719165	     -1.27193161	      2.48876164	     -2.36561789	      2.80408059	      2.13529861	      8.03015459	     13.20388122
      1.22950000	     -5.85573929	     -4.00281557	     -8.01350894	      0.11816981	      0.95087314	      0.35458506	    -15.67678202	      5.60822256	      0.66356721	     -9.75070529	      9.50517680	      1.78432140	     11.01569113	     32.13054932	     -5.34074975	     -8.25420960	     -1.82455382	      1.91510453	     -3.09140094	      2.80783919	      2.43053528	      7.82653325	     13.36057980
      1.23366667	     -5.96515684	     -3.78007769	     -8.02511891	      0.12457792	      0.95035088	      0.35424680	    -15.67911717	      5.31254872	      0.60146098	    -10.13463918	      9.14326033	      1.65593393	     11.14219313	     32.24349302	     -5.09809668	     -7.92492491	     -2.35579215	      1.30805297	     -3.90708444	      2.82763363	      2.64899850	      7.56099247	     13.41021647
      1.23783333	     -6.09301662	     -3.54236479	     -8.02360217	      0.13102626	      0.94985020	      0.35387700	    -15.64581777	      5.00534872	      0.53261206	    -10.53881861	      8.75225114	      1.56417956	     11.29610856	     32.38395685	     -4.83378034	     -7.60836631	     -2.90956809	      0.66694332	     -4.69399144	      2.85584684	      2.90772269	      7.28180382	     13.45734208
